<mxfile host="app.diagrams.net" modified="2024-02-22T06:40:07.549Z" agent="Mozilla/5.0 (Windows NT 10.0; Win64; x64) AppleWebKit/537.36 (KHTML, like Gecko) Chrome/121.0.0.0 Safari/537.36" etag="jJmwwaF4A4qCobt42BHS" version="23.1.5" type="github">
  <diagram name="Page-1" id="5d7acffa-a066-3a61-03fe-96351882024d">
    <mxGraphModel dx="1444" dy="1745" grid="1" gridSize="10" guides="1" tooltips="1" connect="1" arrows="1" fold="1" page="1" pageScale="1" pageWidth="1100" pageHeight="850" background="#ffffff" math="0" shadow="0">
      <root>
        <mxCell id="0" />
        <mxCell id="1" parent="0" />
        <mxCell id="NDIFiFklgzmibwckZ3ts-1" value="&lt;font style=&quot;font-size: 36px;&quot;&gt;Hospital&lt;/font&gt;" style="ellipse;whiteSpace=wrap;html=1;aspect=fixed;" parent="1" vertex="1">
          <mxGeometry x="430" y="-585" width="280" height="280" as="geometry" />
        </mxCell>
        <mxCell id="NDIFiFklgzmibwckZ3ts-2" value="&lt;font style=&quot;font-size: 18px;&quot;&gt;Patient&lt;/font&gt;" style="rounded=0;whiteSpace=wrap;html=1;" parent="1" vertex="1">
          <mxGeometry x="120" y="-685" width="120" height="60" as="geometry" />
        </mxCell>
        <mxCell id="NDIFiFklgzmibwckZ3ts-4" value="" style="endArrow=classic;html=1;rounded=0;exitX=0.5;exitY=1;exitDx=0;exitDy=0;" parent="1" source="NDIFiFklgzmibwckZ3ts-2" edge="1">
          <mxGeometry width="50" height="50" relative="1" as="geometry">
            <mxPoint x="530" y="-415" as="sourcePoint" />
            <mxPoint x="430" y="-505" as="targetPoint" />
            <Array as="points">
              <mxPoint x="180" y="-505" />
            </Array>
          </mxGeometry>
        </mxCell>
        <mxCell id="NDIFiFklgzmibwckZ3ts-6" value="&lt;font style=&quot;font-size: 14px;&quot;&gt;Appointment Scheduling&lt;/font&gt;" style="text;html=1;align=center;verticalAlign=middle;whiteSpace=wrap;rounded=0;" parent="1" vertex="1">
          <mxGeometry x="212.5" y="-533" width="169" height="30" as="geometry" />
        </mxCell>
        <mxCell id="NDIFiFklgzmibwckZ3ts-7" value="" style="endArrow=classic;html=1;rounded=0;exitX=0.25;exitY=1;exitDx=0;exitDy=0;" parent="1" source="NDIFiFklgzmibwckZ3ts-2" edge="1">
          <mxGeometry width="50" height="50" relative="1" as="geometry">
            <mxPoint x="530" y="-415" as="sourcePoint" />
            <mxPoint x="420" y="-465" as="targetPoint" />
            <Array as="points">
              <mxPoint x="150" y="-465" />
            </Array>
          </mxGeometry>
        </mxCell>
        <mxCell id="NDIFiFklgzmibwckZ3ts-8" value="&lt;font style=&quot;font-size: 14px;&quot;&gt;Personal Details&lt;/font&gt;" style="text;html=1;align=center;verticalAlign=middle;whiteSpace=wrap;rounded=0;" parent="1" vertex="1">
          <mxGeometry x="200" y="-490" width="170" height="30" as="geometry" />
        </mxCell>
        <mxCell id="NDIFiFklgzmibwckZ3ts-9" value="" style="shape=link;html=1;rounded=0;width=44;" parent="1" edge="1">
          <mxGeometry width="100" relative="1" as="geometry">
            <mxPoint x="810" y="-215" as="sourcePoint" />
            <mxPoint x="980" y="-215" as="targetPoint" />
            <Array as="points" />
          </mxGeometry>
        </mxCell>
        <mxCell id="NDIFiFklgzmibwckZ3ts-14" value="&lt;font style=&quot;font-size: 24px;&quot;&gt;DB&lt;/font&gt;" style="text;html=1;align=center;verticalAlign=middle;whiteSpace=wrap;rounded=0;" parent="1" vertex="1">
          <mxGeometry x="860" y="-235" width="60" height="40" as="geometry" />
        </mxCell>
        <mxCell id="NDIFiFklgzmibwckZ3ts-15" value="" style="endArrow=classic;html=1;rounded=0;" parent="1" edge="1">
          <mxGeometry width="50" height="50" relative="1" as="geometry">
            <mxPoint x="910" y="-245" as="sourcePoint" />
            <mxPoint x="720" y="-470" as="targetPoint" />
            <Array as="points">
              <mxPoint x="910" y="-470" />
            </Array>
          </mxGeometry>
        </mxCell>
        <mxCell id="NDIFiFklgzmibwckZ3ts-16" value="&lt;font style=&quot;font-size: 14px;&quot;&gt;&lt;font style=&quot;&quot;&gt;Patient&lt;/font&gt;&lt;font style=&quot;&quot;&gt; &lt;/font&gt;&lt;font style=&quot;&quot;&gt;Data&lt;/font&gt;&lt;/font&gt;" style="text;html=1;align=center;verticalAlign=middle;whiteSpace=wrap;rounded=0;" parent="1" vertex="1">
          <mxGeometry x="738" y="-498" width="140" height="30" as="geometry" />
        </mxCell>
        <mxCell id="NDIFiFklgzmibwckZ3ts-17" value="" style="endArrow=classic;html=1;rounded=0;exitX=0.75;exitY=1;exitDx=0;exitDy=0;" parent="1" source="NDIFiFklgzmibwckZ3ts-2" edge="1">
          <mxGeometry width="50" height="50" relative="1" as="geometry">
            <mxPoint x="530" y="-425" as="sourcePoint" />
            <mxPoint x="460" y="-545" as="targetPoint" />
            <Array as="points">
              <mxPoint x="210" y="-545" />
            </Array>
          </mxGeometry>
        </mxCell>
        <mxCell id="NDIFiFklgzmibwckZ3ts-18" value="&lt;font style=&quot;font-size: 14px;&quot;&gt;Payment&lt;/font&gt;" style="text;html=1;align=center;verticalAlign=middle;whiteSpace=wrap;rounded=0;" parent="1" vertex="1">
          <mxGeometry x="255" y="-573" width="60" height="30" as="geometry" />
        </mxCell>
        <mxCell id="NDIFiFklgzmibwckZ3ts-19" value="" style="rounded=0;whiteSpace=wrap;html=1;" parent="1" vertex="1">
          <mxGeometry x="130" y="-225" width="120" height="60" as="geometry" />
        </mxCell>
        <mxCell id="NDIFiFklgzmibwckZ3ts-20" value="&lt;font style=&quot;font-size: 18px;&quot;&gt;Employee/&lt;br&gt;Doctor&lt;/font&gt;" style="text;html=1;align=center;verticalAlign=middle;whiteSpace=wrap;rounded=0;" parent="1" vertex="1">
          <mxGeometry x="120" y="-210" width="130" height="30" as="geometry" />
        </mxCell>
        <mxCell id="NDIFiFklgzmibwckZ3ts-21" value="" style="endArrow=classic;html=1;rounded=0;exitX=0.25;exitY=0;exitDx=0;exitDy=0;" parent="1" source="NDIFiFklgzmibwckZ3ts-19" edge="1">
          <mxGeometry width="50" height="50" relative="1" as="geometry">
            <mxPoint x="530" y="-375" as="sourcePoint" />
            <mxPoint x="420" y="-395" as="targetPoint" />
            <Array as="points">
              <mxPoint x="160" y="-395" />
            </Array>
          </mxGeometry>
        </mxCell>
        <mxCell id="NDIFiFklgzmibwckZ3ts-22" value="&lt;font style=&quot;font-size: 14px;&quot;&gt;Prescription&lt;/font&gt;" style="text;html=1;align=center;verticalAlign=middle;whiteSpace=wrap;rounded=0;" parent="1" vertex="1">
          <mxGeometry x="250" y="-367" width="60" height="30" as="geometry" />
        </mxCell>
        <mxCell id="NDIFiFklgzmibwckZ3ts-23" value="" style="endArrow=classic;html=1;rounded=0;exitX=0.42;exitY=-0.007;exitDx=0;exitDy=0;exitPerimeter=0;" parent="1" source="NDIFiFklgzmibwckZ3ts-19" edge="1">
          <mxGeometry width="50" height="50" relative="1" as="geometry">
            <mxPoint x="530" y="-375" as="sourcePoint" />
            <mxPoint x="430" y="-365" as="targetPoint" />
            <Array as="points">
              <mxPoint x="180" y="-365" />
            </Array>
          </mxGeometry>
        </mxCell>
        <mxCell id="NDIFiFklgzmibwckZ3ts-24" value="&lt;span style=&quot;font-size: 14px;&quot;&gt;Treats Patient&lt;/span&gt;" style="text;html=1;align=center;verticalAlign=middle;whiteSpace=wrap;rounded=0;" parent="1" vertex="1">
          <mxGeometry x="226" y="-399" width="110" height="30" as="geometry" />
        </mxCell>
        <mxCell id="NDIFiFklgzmibwckZ3ts-25" value="" style="endArrow=classic;html=1;rounded=0;exitX=0.587;exitY=-0.02;exitDx=0;exitDy=0;exitPerimeter=0;" parent="1" source="NDIFiFklgzmibwckZ3ts-19" edge="1">
          <mxGeometry width="50" height="50" relative="1" as="geometry">
            <mxPoint x="530" y="-375" as="sourcePoint" />
            <mxPoint x="460" y="-335" as="targetPoint" />
            <Array as="points">
              <mxPoint x="200" y="-335" />
            </Array>
          </mxGeometry>
        </mxCell>
        <mxCell id="NDIFiFklgzmibwckZ3ts-26" value="&lt;font style=&quot;font-size: 14px;&quot;&gt;Doctor Detials&lt;/font&gt;" style="text;html=1;align=center;verticalAlign=middle;whiteSpace=wrap;rounded=0;" parent="1" vertex="1">
          <mxGeometry x="226" y="-337" width="110" height="30" as="geometry" />
        </mxCell>
        <mxCell id="NDIFiFklgzmibwckZ3ts-28" value="" style="endArrow=classic;html=1;rounded=0;exitX=0.5;exitY=0;exitDx=0;exitDy=0;" parent="1" source="NDIFiFklgzmibwckZ3ts-1" edge="1">
          <mxGeometry width="50" height="50" relative="1" as="geometry">
            <mxPoint x="570" y="-595" as="sourcePoint" />
            <mxPoint x="250" y="-675" as="targetPoint" />
            <Array as="points">
              <mxPoint x="570" y="-675" />
            </Array>
          </mxGeometry>
        </mxCell>
        <mxCell id="NDIFiFklgzmibwckZ3ts-29" value="&lt;font style=&quot;font-size: 14px;&quot;&gt;Suggested Tests&lt;/font&gt;" style="text;html=1;align=center;verticalAlign=middle;whiteSpace=wrap;rounded=0;" parent="1" vertex="1">
          <mxGeometry x="336" y="-678" width="120" height="30" as="geometry" />
        </mxCell>
        <mxCell id="NDIFiFklgzmibwckZ3ts-30" value="" style="endArrow=classic;html=1;rounded=0;" parent="1" edge="1">
          <mxGeometry width="50" height="50" relative="1" as="geometry">
            <mxPoint x="555" y="-585" as="sourcePoint" />
            <mxPoint x="255" y="-645" as="targetPoint" />
            <Array as="points">
              <mxPoint x="555" y="-645" />
            </Array>
          </mxGeometry>
        </mxCell>
        <mxCell id="NDIFiFklgzmibwckZ3ts-33" value="&lt;font style=&quot;font-size: 14px;&quot;&gt;Fees&lt;/font&gt;" style="text;html=1;align=center;verticalAlign=middle;whiteSpace=wrap;rounded=0;" parent="1" vertex="1">
          <mxGeometry x="360" y="-648" width="60" height="30" as="geometry" />
        </mxCell>
        <mxCell id="NDIFiFklgzmibwckZ3ts-34" value="" style="endArrow=classic;html=1;rounded=0;exitX=0.454;exitY=1.013;exitDx=0;exitDy=0;exitPerimeter=0;entryX=1;entryY=1;entryDx=0;entryDy=0;" parent="1" source="NDIFiFklgzmibwckZ3ts-1" target="NDIFiFklgzmibwckZ3ts-20" edge="1">
          <mxGeometry width="50" height="50" relative="1" as="geometry">
            <mxPoint x="540" y="-295" as="sourcePoint" />
            <mxPoint x="580" y="-425" as="targetPoint" />
            <Array as="points">
              <mxPoint x="557" y="-180" />
            </Array>
          </mxGeometry>
        </mxCell>
        <mxCell id="NDIFiFklgzmibwckZ3ts-35" value="&lt;font style=&quot;font-size: 14px;&quot;&gt;Assign Patients to Doctor&amp;nbsp;&lt;/font&gt;" style="text;html=1;align=center;verticalAlign=middle;whiteSpace=wrap;rounded=0;" parent="1" vertex="1">
          <mxGeometry x="322" y="-205" width="174" height="30" as="geometry" />
        </mxCell>
        <mxCell id="NDIFiFklgzmibwckZ3ts-36" value="" style="endArrow=classic;html=1;rounded=0;" parent="1" edge="1">
          <mxGeometry width="50" height="50" relative="1" as="geometry">
            <mxPoint x="890" y="-245" as="sourcePoint" />
            <mxPoint x="720" y="-445" as="targetPoint" />
            <Array as="points">
              <mxPoint x="890" y="-445" />
            </Array>
          </mxGeometry>
        </mxCell>
        <mxCell id="NDIFiFklgzmibwckZ3ts-37" value="&lt;font style=&quot;font-size: 14px;&quot;&gt;Report&lt;/font&gt;" style="text;html=1;align=center;verticalAlign=middle;whiteSpace=wrap;rounded=0;" parent="1" vertex="1">
          <mxGeometry x="770" y="-468" width="60" height="30" as="geometry" />
        </mxCell>
      </root>
    </mxGraphModel>
  </diagram>
</mxfile>
